<?xml version="1.0" encoding="UTF-8"?>
<svg width="421px" height="838px" viewBox="0 0 421 838" version="1.1" xmlns="http://www.w3.org/2000/svg" xmlns:xlink="http://www.w3.org/1999/xlink">
    <title>Black Outline Mockup</title>
    <g id="Page-1" stroke="none" stroke-width="1" fill="none" fill-rule="evenodd">
        <g id="Android-Device-Outline-Mockup" transform="translate(-1439.000000, -149.000000)" stroke="#9B9B9B">
            <g id="Black-Outline-Mockup" transform="translate(1439.500000, 149.000000)">
                <path d="M354.525414,1.3306713 C372.198526,1.3306713 388.198526,8.4941153 399.780248,20.0758373 C411.36197,31.6575593 418.525414,47.6575593 418.525414,65.3306713 L418.525414,65.3306713 L418.525414,772.896145 C418.525414,790.569257 411.36197,806.569257 399.780248,818.150979 C388.198526,829.732701 372.198526,836.896145 354.525414,836.896145 L354.525414,836.896145 L70.5254141,836.896145 C52.8523021,836.896145 36.8523021,829.732701 25.2705801,818.150979 C13.6888581,806.569257 6.52541414,790.569257 6.52541414,772.896143 L6.52541414,772.896143 L6.52464192,418.879589 L3.24564411,418.879859 C2.69335936,418.879859 2.19335936,418.656001 1.83143054,418.294073 C1.46950173,417.932144 1.24564411,417.432144 1.24564411,416.879859 L1.24564411,416.879859 L1.24564411,287.879859 C1.24564411,287.327574 1.46950173,286.827574 1.83143054,286.465645 C2.19335936,286.103717 2.69335936,285.879859 3.24572644,285.879859 L3.24572644,285.879859 L6.52464411,285.879589 L6.52464411,267.434344 L3.24564411,267.435416 C2.69335936,267.435416 2.19335936,267.211559 1.83143054,266.84963 C1.46950173,266.487701 1.24564411,265.987701 1.24564411,265.435416 L1.24564411,265.435416 L1.24564411,215.396891 C1.24564411,214.844607 1.46950173,214.344607 1.83143054,213.982678 C2.19335936,213.620749 2.69335936,213.396891 3.24574065,213.396891 L3.24574065,213.396891 L6.52463887,213.396575 L6.52541414,65.3306713 C6.52541414,47.6575593 13.6888581,31.6575593 25.2705801,20.0758373 C36.8523021,8.4941153 52.8523021,1.3306713 70.5254141,1.3306713 L70.5254141,1.3306713 Z" id="Body" stroke-width="2"></path>
                <path d="M393.518455,99.0245192 L393.518455,740.975481 L31.4938955,740.975481 L31.4938955,99.0245192 L393.518455,99.0245192 Z" id="Screen-Area" stroke-width="2"></path>
                <path d="M345.649548,14.3306713 C363.32266,14.3306713 379.32266,21.4941153 390.904382,33.0758373 C402.486104,44.6575593 409.649548,60.6575593 409.649548,78.3306713 L409.649548,78.3306713 L409.649548,759.356298 C409.649548,777.02941 402.486104,793.02941 390.904382,804.611132 C379.32266,816.192854 363.32266,823.356298 345.649548,823.356298 L345.649548,823.356298 L79.9340992,823.356298 C62.2609872,823.356298 46.2609872,816.192854 34.6792652,804.611132 C23.0975432,793.02941 15.9340992,777.02941 15.9340992,759.356298 L15.9340992,759.356298 L15.9340992,78.3306713 C15.9340992,60.6575593 23.0975432,44.6575593 34.6792652,33.0758373 C46.2609872,21.4941153 62.2609872,14.3306713 79.9340992,14.3306713 L79.9340992,14.3306713 Z" id="Rectangle-6-Copy" stroke-width="2"></path>
                <path d="M253.225045,762.541444 C258.471751,762.541444 263.221751,764.668091 266.660074,768.106415 C270.098398,771.544738 272.225045,776.294738 272.225045,781.541444 C272.225045,786.810326 270.100665,791.571265 266.664703,795.015873 C263.226123,798.463107 258.474166,800.591775 253.225045,800.591775 L253.225045,800.591775 L173.074051,800.591775 C167.827346,800.591775 163.077346,798.465128 159.639022,795.026804 C156.200698,791.58848 154.074051,786.83848 154.074051,781.591775 C154.074051,776.322892 156.198432,771.561954 159.634393,768.117346 C163.072973,764.670112 167.824931,762.541444 173.074051,762.541444 L173.074051,762.541444 Z" id="Hiome-Button" stroke-width="2"></path>
                <g id="Group-31" transform="translate(79.149548, 2.000000)" stroke-linecap="square" stroke-width="3">
                    <g id="Group-28">
                        <line x1="1.5" y1="11.0114942" x2="1.5" y2="0.130683123" id="Line"></line>
                    </g>
                    <line x1="266.301119" y1="11.0114942" x2="266.301119" y2="0.130683123" id="Line-Copy-4"></line>
                </g>
                <g id="Group-31-Copy" transform="translate(79.149548, 824.356298)" stroke-linecap="square" stroke-width="3">
                    <g id="Group-28">
                        <line x1="1.5" y1="11.0114942" x2="1.5" y2="0.130683123" id="Line"></line>
                    </g>
                    <line x1="266.301119" y1="11.0114942" x2="266.301119" y2="0.130683123" id="Line-Copy-4"></line>
                </g>
                <g id="Mic-and-Camera" transform="translate(139.388862, 53.000000)" stroke-width="2">
                    <circle id="Oval-9" cx="6.78851336" cy="7.48988561" r="6"></circle>
                    <path d="M104.728782,1.08641304 C106.385636,1.08641304 107.885636,1.75798592 108.971422,2.84377235 C110.057209,3.92955879 110.728782,5.42955879 110.728782,7.08641304 L110.728782,7.08641304 L110.728782,7.78063085 C110.728782,9.4374851 110.057209,10.9374851 108.971422,12.0232715 C107.885636,13.109058 106.385636,13.7806309 104.728782,13.7806309 L104.728782,13.7806309 L42.7925904,13.7806309 C41.1357361,13.7806309 39.6357361,13.109058 38.5499497,12.0232715 C37.4641633,10.9374851 36.7925904,9.4374851 36.7925904,7.78063085 L36.7925904,7.78063085 L36.7925904,7.08641304 C36.7925904,5.42955879 37.4641633,3.92955879 38.5499497,2.84377235 C39.6357361,1.75798592 41.1357361,1.08641304 42.7925904,1.08641304 L42.7925904,1.08641304 Z" id="Rectangle-8"></path>
                </g>
            </g>
        </g>
    </g>
</svg>