<?xml version="1.0" standalone="no"?>
<!DOCTYPE svg PUBLIC "-//W3C//DTD SVG 1.1//EN" "http://www.w3.org/Graphics/SVG/1.1/DTD/svg11.dtd" >
<svg xmlns="http://www.w3.org/2000/svg">
<metadata>Generated by IcoMoon</metadata>
<defs>
<font id="hamid" horiz-adv-x="1024">
<font-face units-per-em="1024" ascent="960" descent="-64" />
<missing-glyph horiz-adv-x="1024" />
<glyph unicode="&#x20;" horiz-adv-x="512" d="" />
<glyph unicode="&#xe900;" glyph-name="bootstrap" d="M853.344 960h-682.656c-94.127-0.308-170.348-76.53-170.656-170.627v-682.685c0-93.824 76.832-170.656 170.656-170.656h682.656c93.824 0 170.656 76.832 170.656 170.656v682.656c0 93.824-76.832 170.656-170.656 170.656zM760 240.832c-8.896-21.107-22.298-38.791-39.086-52.481l-0.242-0.191c-18.016-14.496-40.672-26.496-68.672-35.008-27.84-8.672-60.992-12.992-99.488-12.992h-274.336v597.344h290.176c53.664 0 96.672-12 128.832-36.672 32.512-24.672 48.512-61.664 48.512-111.328 0-30.176-7.328-55.84-22.016-77.152s-35.84-37.824-63.168-49.344v-2.016c36.512-7.68 64.672-24.992 83.168-51.84s28.16-60.832 28.16-101.824c0-0.055 0-0.119 0-0.184 0-23.432-4.716-45.762-13.251-66.094l0.419 1.126 0.992-1.152zM641.504 388c-17.344 16-42.016 23.84-73.664 23.84h-184.512v-186.336h184.992c31.488 0 56.32 8.16 73.824 24.672s26.336 40 26.336 70.016c-0.32 29.504-8.832 52.32-26.336 67.84h-0.832zM616 508.512c16.832 14.336 25.152 34.848 25.152 61.664 0 30.016-7.488 51.328-22.656 63.488-15.008 12.16-36.672 18.496-65.152 18.496h-170.656v-164.832h170.656c24.832 0 46.176 7.328 62.496 21.152z" />
<glyph unicode="&#xe901;" glyph-name="logo-vue" d="M512 671.94l-110.98 192.22h-158.86l269.84-467.38 269.84 467.38h-158.86l-110.98-192.22zM818.8 864.16l-306.8-531.38-306.8 531.38h-173.72l480.52-832.32 480.52 832.32h-173.72z" />
<glyph unicode="&#xe902;" glyph-name="git" d="M1004.672 493.664l-447.168 447.008c-11.935 11.965-28.439 19.367-46.672 19.367s-34.737-7.402-46.671-19.366l-0.001-0.001-92.672-92.832 117.824-117.664c7.493 2.627 16.131 4.145 25.124 4.145 21.64 0 41.227-8.789 55.386-22.991l0.002-0.002c22.016-22.016 28.16-53.664 18.848-80.992l113.344-113.504c7.647 2.751 16.471 4.341 25.667 4.341 21.621 0 41.188-8.791 55.322-22.994l0.003-0.003c30.848-30.656 30.848-80.32 0-111.008-14.176-14.203-33.774-22.989-55.424-22.989s-41.248 8.787-55.423 22.988l-0.001 0.001c-14.247 14.255-23.059 33.945-23.059 55.693 0 10.616 2.1 20.741 5.906 29.984l-0.191-0.524-106.176 105.664v-278.496c7.488-3.68 14.656-8.672 20.832-14.848 30.496-30.848 30.496-80.32 0-111.008-14.263-14.207-33.938-22.991-55.664-22.991s-41.401 8.784-55.666 22.994l0.002-0.002c-14.199 14.204-22.982 33.824-22.982 55.496 0 32.647 19.93 60.639 48.287 72.472l0.519 0.192v281.152c-9.952 4.289-18.461 10.070-25.675 17.163l0.011-0.011c-14.185 14.148-22.96 33.714-22.96 55.329 0 10.954 2.254 21.381 6.323 30.843l-0.194-0.508-115.68 116.32-306.656-306.496c-11.827-11.998-19.131-28.482-19.131-46.672s7.304-34.674 19.139-46.68l447.16-447c11.935-11.965 28.439-19.367 46.672-19.367s34.737 7.402 46.671 19.366l444.993 444.993c11.965 11.935 19.367 28.439 19.367 46.672s-7.402 34.737-19.366 46.671l-0.001 0.001z" />
<glyph unicode="&#xe903;" glyph-name="android-studio" d="M469.333 874.667h85.333v-85.333h21.333c35.346 0 64-28.654 64-64v0-149.333l-18.773-18.773 69.973-121.173c47.36 46.507 76.8 110.933 76.8 182.613h85.333c0-103.253-45.653-195.84-118.187-258.56l133.973-232.107 5.547-94.72-79.787 52.053-130.987 227.413c-45.227-22.613-97.28-35.413-151.893-35.413s-106.667 12.8-151.893 35.413l-130.987-227.413-79.787-52.053 5.547 94.72 247.893 429.227-18.773 18.773v149.333c0 35.346 28.654 64 64 64v0h21.333v85.333zM402.773 386.987c33.28-15.787 70.4-24.32 109.227-24.32s75.947 8.533 109.227 24.32l-62.293 107.947h-0.427c-26.453-25.6-66.56-25.6-93.013 0h-0.427l-62.293-107.947zM512 704c-23.564 0-42.667-19.103-42.667-42.667v0c0-23.564 19.103-42.667 42.667-42.667v0c23.564 0 42.667 19.103 42.667 42.667v0c0 23.564-19.103 42.667-42.667 42.667v0z" />
<glyph unicode="&#xe904;" glyph-name="android-fill" d="M748.032 315.477c-23.637 0.012-42.795 19.177-42.795 42.816 0 23.647 19.169 42.816 42.816 42.816 0.007 0 0.015 0 0.022 0h-0.001c23.647 0 42.816-19.169 42.816-42.816s-19.169-42.816-42.816-42.816v0zM276.821 315.477c-23.637 0.012-42.795 19.177-42.795 42.816 0 23.647 19.169 42.816 42.816 42.816 0.007 0 0.015 0 0.022 0h-0.001c23.647 0 42.816-19.169 42.816-42.816s-19.169-42.816-42.816-42.816v0zM763.221 572.245l85.589 147.584c1.435 2.498 2.281 5.491 2.281 8.683 0 9.755-7.908 17.663-17.663 17.663-6.563 0-12.291-3.58-15.336-8.894l-0.046-0.086-86.485-149.333c-63.743 29.855-138.416 47.278-217.157 47.278-0.606 0-1.211-0.001-1.816-0.003h0.093c-78.933 0-153.387-16.981-219.349-46.848l-86.485 149.333c-3.089 5.389-8.807 8.962-15.36 8.962-9.745 0-17.644-7.9-17.644-17.644 0-3.192 0.847-6.186 2.33-8.769l-0.045 0.086 85.12-147.541c-146.219-79.787-246.528-227.84-261.248-403.029h1024c-14.251 174.763-114.133 322.773-260.779 402.56z" />
<glyph unicode="&#xe905;" glyph-name="adobe-illustrator" d="M344.1 743.984v-24.138l-140.93-489.746h81.754l38.932 146.38h149.492l38.152-146.378h92.652l-153.386 513.882h-106.668zM452.324 452.008h-107.448l54.502 217.232 52.946-217.236zM762.99 612.004h-84.090v-381.904h84.090v381.9zM719.86 760.378c-27.242 0-49.326-21.83-49.326-48.76s22.084-48.762 49.326-48.762 49.328 21.83 49.328 48.76-22.084 48.762-49.328 48.762zM1024-64h-1024v1024h1024v-1024z" />
<glyph unicode="&#xe906;" glyph-name="jira" horiz-adv-x="992" d="M980 476.6c-145.8 145.4-338.8 339.8-483 483.4-331-329.8-485-483.4-485-483.4-15.8-15.8-15.8-41.4 0-57.4 265.6-264.6 123.6-123 485-483.2 758.8 756 31.4 33.4 483 483.4 16 15.8 16 41.4 0 57.2zM497 296.6l-152 151.4 152 151.4 152-151.4-152-151.4z" />
<glyph unicode="&#xe907;" glyph-name="adobe-photoshop" d="M1024-64v1024h-1024v-1024h1024zM812.82 525.972c-80.712 36.666-136.88 20.198-137.64-6.554-0.566-19.974-1.894-31.088 78.816-70.028 96.99-46.798 89.13-147.578 37.95-193.072-28.752-25.556-86.144-34.896-131.93-29.95-35.716 3.86-64.816 104.174-64.816 20.084v84.090c0 0 29.44-20.056 63.3-27.972 36.36-8.502 77.602-4.094 86.436 21.23 17.060 48.904-87.194 67.48-129.104 117.304-32.346 38.454-35.408 136.434 49.832 168.958 59.174 22.58 134.076 1.154 147.156-4.67v-79.42zM377.58 748.85c67.154-2.336 165.844-33.286 165.844-165.26s-120.748-175.28-230.926-165.844v-186.866h-82.078v516.22s80.002 4.086 147.158 1.75zM398.894 499.5c35.392 12.914 58.396 40.676 58.396 83.8 0 45.722-23.41 76.684-59.214 85.43-38.772 9.474-85.578 3.89-85.578 3.89v-180.088s64.79-0.916 86.396 6.968z" />
<glyph unicode="&#xe908;" glyph-name="sketch" d="M55.008 635.616l-36.992-49.792h180.992l13.792 261.408zM792.608 868.608l-257.216 27.392 271.392-294.4zM224.384 523.392l-22.4 44h-182.208l449.792-523.392zM228.384 585.792h568l-283.808 308.192zM823.008 567.616l-267.808-523.616 449.6 523.392h-181.792zM830.784 821.984l-18.784 25.216 1.792-34.592 12.192-226.816h180.608zM227.008 772.992l-9.216-171.2 271.616 294.208-257.184-27.392zM802.4 567.616h-580l290.208-567.616z" />
<glyph unicode="&#xe909;" glyph-name="figma" d="M512 448c0 227.488 341.344 227.488 341.344 0s-341.344-227.488-341.344 0zM170.656 106.656c0 0.028 0 0.062 0 0.096 0 94.198 76.362 170.56 170.56 170.56 0.034 0 0.067 0 0.101 0h170.651v-170.656c0-227.488-341.344-227.488-341.344 0zM512 960v-341.344h170.656c227.488 0 227.488 341.344 0 341.344zM170.656 789.344c0-0.028 0-0.062 0-0.096 0-94.198 76.362-170.56 170.56-170.56 0.034 0 0.067 0 0.101 0h170.651v341.344h-170.656c-0.028 0-0.062 0-0.096 0-94.198 0-170.56-76.362-170.56-170.56 0-0.034 0-0.067 0-0.101v0.005zM170.656 448c0-0.028 0-0.062 0-0.096 0-94.198 76.362-170.56 170.56-170.56 0.034 0 0.067 0 0.101 0h170.651v341.344h-170.656c-0.028 0-0.062 0-0.096 0-94.198 0-170.56-76.362-170.56-170.56 0-0.034 0-0.067 0-0.101v0.005z" />
<glyph unicode="&#xe90a;" glyph-name="typescript" d="M0 448v-512h1024v1024h-1024zM825.152 488.832c25.464-6.128 47.293-19.133 64.102-36.93l0.058-0.062c9.344-9.984 23.328-28.32 24.512-32.832 0.32-1.344-44.16-31.168-71.168-47.84-0.992-0.672-4.992 3.488-9.344 10.016-13.152 19.168-27.008 27.488-48.16 28.992-31.008 2.016-51.008-14.176-50.848-41.344-0.008-0.294-0.012-0.64-0.012-0.986 0-6.632 1.601-12.89 4.438-18.408l-0.106 0.227c6.848-14.176 19.68-22.656 59.328-39.84 73.344-31.488 104.672-52.32 124.16-81.824 21.824-32.992 26.656-85.664 12-124.992-16.32-42.496-56.672-71.488-113.344-80.992-17.504-3.168-59.168-2.656-78.016 0.832-41.152 7.328-80.16 27.68-104.16 54.336-9.504 10.336-27.84 37.504-26.656 39.328 0.512 0.672 4.672 3.328 9.344 6.016l67.52 39.168 6.176-9.152c8.672-13.152 27.488-31.168 38.848-37.152 32.672-17.344 77.504-14.848 99.68 4.992 8.992 7.488 14.016 19.008 13.344 30.656 0 11.84-1.504 17.152-7.68 26.016-8 11.328-24.16 20.992-70.336 40.992-52.832 22.848-75.68 36.832-96.32 59.328-12.554 14.251-22.228 31.364-27.911 50.208l-0.249 0.96c-3.84 14.496-4.832 50.848-1.824 65.344 10.848 51.168 49.504 86.656 104.992 97.152 18.016 3.488 60 2.176 77.664-2.176zM584.832 445.984l0.32-41.824h-133.344v-378.848h-94.336v378.848h-133.152v40.992c0 22.848 0.512 41.824 1.152 42.336 0.512 0.672 81.504 0.992 179.84 0.832l179.008-0.512z" />
<glyph unicode="&#xe90b;" glyph-name="logo-sass" d="M1023.56 303.86c-2.94 23.84-15.020 44.52-36 61.54-0.266 0.322-0.547 0.61-0.851 0.872l-0.009 0.008-1.060 0.76-0.34 0.24-12.94 9.28c-0.477 0.284-1.028 0.523-1.611 0.688l-0.049 0.012c-35.24 20.98-93.58 35.68-182.84 4.18-21.3 35.84-23.72 64.56-9.46 108.56 2.54 7.66 0.18 12.72-7.42 16-15.28 6.5-36.2 3.18-51.040-0.74-6.92-1.8-11.080-5.72-12.4-11.66-9.4-44-36.72-84.2-63.14-123l-1.56-2.28c-16.28 34.52-12.9 61.26-1.56 94.76 2.26 6.68 0.48 11.12-5.78 14.44-17.48 9.020-43.7 2.82-54.14-0.26-13.24-3.86-27.44-39.64-43.3-82.48-4-10.78-7.44-20-9.5-24.3-4.9-10-9.58-21.4-14.54-33.5-11.2-27.38-23.82-58.2-41.86-77.56-6.56 14.5 3.76 37.36 13.78 59.54 11.86 26.22 23.060 51 10.16 66.82-4.025 4.908-9.921 8.152-16.583 8.636l-0.077 0.004c-0.603 0.049-1.304 0.076-2.013 0.076-3.714 0-7.25-0.764-10.46-2.142l0.172 0.066c1.34 11.3 1.4 20.22-1.9 31-4.72 15.38-16.98 24-33.86 23.54-38.44-1.12-70.96-29.76-91.5-53.6-13.68-16-44-28.2-70.62-38.9-10.52-4.46-20.52-8.46-28.86-12.46-13.3 11.24-30.2 22.58-48 34.56-50 33.56-106.66 71.62-108.62 123.22-2.8 76.22 84 130.28 159.76 168.86 57.42 29.2 107.34 48.56 152.62 59.14 63.6 14.86 117.32 11.86 159.64-8.88 23.16-11.34 34-36 27.12-61.36-18-65.9-92.58-111.060-156.36-131.38-38.42-12.24-71.12-17.36-100-15.68-36.2 2.1-65.76 20.26-78.4 28-1.836 1.272-3.936 2.474-6.138 3.491l-0.262 0.109-0.58 0.14c-0.466 0.121-1 0.19-1.551 0.19-1.922 0-3.647-0.845-4.823-2.183l-0.006-0.007c-2.6-3.1-1.68-8-0.74-10.48 12.3-32.14 37.7-52.44 75.48-60.34 10.872-2.28 23.366-3.585 36.164-3.585 0.491 0 0.981 0.002 1.472 0.006h-0.075c88.42 0 201.24 50.98 242.68 92.96 28.26 28.6 48.84 58 57.36 108.7 8.9 53.1-27.1 90-63.78 107-89.14 41.14-190.38 24.88-259.62 4-81-24.42-164.8-68.82-229.88-121.86-80.24-65.34-109.24-126-86.24-180.5 23.62-55.86 81.22-90.8 136.92-124.6 18-10.9 35.12-21.28 50.54-32-4.64-2.26-9.38-4.56-14.2-6.86-46.76-22.66-99.8-48.16-129.22-90.3-21.36-30.7-25.36-61.26-11.88-90.84 7.2-15.74 20-26.42 37.78-31.74 8.168-2.404 17.552-3.787 27.259-3.787 0.415 0 0.83 0.003 1.244 0.008l-0.063-0.001c34.62 0 72.72 14 93.46 26.94 36.64 23 60.38 53.88 70.58 91.78 9.080 33.72 6.9 67.22-6.3 97.12l44.9 22.64c-21.66-72-5.060-115 13.18-138.72 6.72-8.74 18.84-14 32.38-14.24s26 4.86 33.040 13.54c13.32 16.5 23.16 35.8 32.22 55.1-0.48-12.6 0.12-25.36 4.42-36.18 3.86-9.74 10.22-16.2 18.42-18.68 8.72-2.66 18.94-0.42 28.78 6.3 44.34 30.34 74.66 103.16 99.020 161.7 3.46 8.32 6.78 16.32 10 23.8 6.724-23.759 15.243-44.383 25.797-63.737l-0.797 1.597c2.36-4.28 2.16-6.16-1.040-9.68-4.82-5.28-11.54-11.66-18.66-18.42-21.56-20.46-48.4-46-52-68.46-1.4-9 4.8-17.2 14.42-19.060 28.94-5.76 63.8 2.66 93.28 22.5 26.8 18 36.88 43.1 30 74.38-6.66 30.12 8.54 67.52 45.18 111.24 6-25.060 14-45.32 25.040-63.060l-0.3-0.24c-26.68-23.3-63.24-55.2-57.56-93.9 1.019-7.663 5.158-14.197 11.077-18.384l0.083-0.056c4.463-3.049 9.976-4.869 15.914-4.869 2.301 0 4.537 0.273 6.68 0.789l-0.194-0.039c34.94 7.34 61.24 22.12 80.36 45.14s12.14 48.54 5.7 68.34c50 13.56 94.52 13.22 136.2-1 23.4-8 40.18-21.14 49.86-39.28 12.18-22.82 5.6-43.88-18.58-59.3-7.42-4.74-11-7.64-11.22-11.3-0.006-0.091-0.009-0.198-0.009-0.306 0-1.679 0.78-3.175 1.998-4.146l0.011-0.008c2.8-2.3 11.44-6.3 30.98 6 18 11.3 28.56 26.68 31.26 46 0.256 2.373 0.402 5.126 0.402 7.913 0 2.856-0.153 5.675-0.453 8.451l0.030-0.344zM224.1 253.74l-0.2-2.56c-3.12-29.28-18-54.8-44.3-76-16.52-13.32-34.46-21.5-50.5-23.060-11.2-1.080-19.34 0.44-24.18 4.54-3.62 3.060-5.56 7.64-6 14-3.28 50.96 76.64 101.6 121.62 118.26 2.429-8.327 3.826-17.892 3.826-27.784 0-2.603-0.097-5.183-0.287-7.737l0.020 0.341zM428.8 397.46c-7.4-42.18-28.98-121.8-62.9-152.7-1.62-1.48-2.98-2-3.6-1.86s-1.1 0.88-1.6 2c-11.32 26.24-7.14 70.56 10 105.38 13.18 26.84 32 44.62 53.040 50 0.8 0.23 1.722 0.368 2.673 0.38h0.007c0.066 0.005 0.144 0.008 0.222 0.008 0.664 0 1.28-0.205 1.789-0.555l-0.011 0.007c0.319-0.497 0.508-1.103 0.508-1.753 0-0.323-0.047-0.635-0.134-0.93l0.006 0.023zM595.78 243.7c-6.38-6.66-15.12-5.76-13.060-3.32l32.48 34.48c-2.62-11.86-10.36-21.68-19.42-31.16zM730.52 273.52c-2.869-1.447-6.213-2.436-9.747-2.771l-0.113-0.009c-0.92 18.14 16.66 38.56 34 52.18 4.66-18.92-4.88-38.92-24.14-49.4z" />
<glyph unicode="&#xe90c;" glyph-name="logo-nodejs" d="M859.52 699.86l-310.86 186.44c-10.53 6.108-23.169 9.713-36.65 9.713s-26.12-3.605-37.006-9.903l0.356 0.19-310.88-186.42c-22.029-13.664-36.481-37.715-36.481-65.142 0-0.14 0-0.28 0.001-0.42v0.022-372.34c-0.001-0.116-0.001-0.254-0.001-0.391 0-27.446 14.45-51.517 36.156-65.021l0.325-0.188 81.98-48.94c41.16-21.060 56.92-21.060 75.18-21.060 64.28 0 104.22 41.6 104.22 108.58v361.020c0 0.042 0.001 0.091 0.001 0.141 0 9.337-7.518 16.918-16.831 17.019h-44.77c-9.322-0.101-16.841-7.682-16.841-17.019 0-0.050 0-0.099 0.001-0.149v0.008-361.020c0.009-0.282 0.015-0.613 0.015-0.945 0-10.516-5.411-19.768-13.6-25.125l-0.115-0.070c-11.8-7.2-28.94-5.68-48.28 4.3l-78.12 47.020c-0.583 0.402-0.96 1.065-0.96 1.817 0 0.008 0 0.016 0 0.024v-0.001 367.080c0.028 0.884 0.486 1.655 1.17 2.114l0.010 0.006 303.68 186c0.213 0.108 0.464 0.171 0.73 0.171s0.517-0.063 0.739-0.176l-0.009 0.004 303.86-186c0.67-0.493 1.1-1.279 1.1-2.165 0-0.012 0-0.025 0-0.037v0.002-367c0-0.015 0.001-0.033 0.001-0.051 0-0.779-0.348-1.477-0.897-1.946l-0.004-0.003-304.12-181.3c-0.238-0.085-0.513-0.135-0.8-0.135s-0.562 0.049-0.817 0.14l0.017-0.005-77.66 46.12c-2.406 1.593-5.36 2.542-8.535 2.542-2.601 0-5.054-0.637-7.211-1.763l0.086 0.041-0.68-0.4c-21.44-12.7-27.2-16-47.080-23.24-3.24-1.18-10.86-4-11.52-11.54s6.58-12.9 13.020-16.64l103.8-63.74c10.45-6.359 23.083-10.128 36.597-10.14h1.163c13.193 0.213 25.469 3.955 35.98 10.32l-0.32-0.18 310.86 186.26c22.035 13.743 36.481 37.85 36.481 65.332 0 0.115 0 0.231-0.001 0.346v-0.018 372.34c0.001 0.109 0.001 0.238 0.001 0.367 0 27.43-14.451 51.484-36.156 64.965l-0.325 0.188zM615.76 323.9c-74.58 0-90.48 20.84-95.2 54.48-1.121 8.216-8.026 14.499-16.426 14.64h-39.614c-9.167-0.2-16.522-7.679-16.522-16.876 0-0.1 0.001-0.199 0.003-0.299v0.015c0-29.16 10.24-124.34 167.84-124.34 48.76 0 89.32 11.4 117.26 32.98s42.9 52.98 42.9 90.4c0 75.1-49 95.66-145.5 109.1-98.1 13.64-98.1 20.58-98.1 35.78 0 10.94 0 36.56 70.92 36.56 50.46 0 77.48-6.38 86.12-40 1.599-7.589 8.185-13.223 16.107-13.34h39.753c4.919 0.050 9.315 2.248 12.302 5.699l0.018 0.021c2.664 3.096 4.287 7.155 4.287 11.593 0 0.453-0.017 0.902-0.050 1.346l0.004-0.059c-5.14 71.1-57.12 107.16-158.48 107.16-92.12 0-147.1-41.5-147.1-111 0-76.2 56.98-97.74 142.58-106.66 100-10.34 100-25.42 100-38.74 0.060-20.76-8.56-48.46-83.1-48.46z" />
<glyph unicode="&#xe90d;" glyph-name="php" d="M224.64 389.12c25.429 0 44.416 4.779 56.448 14.165 11.904 9.301 20.096 25.387 24.405 47.872 4.011 20.992 2.475 35.669-4.523 43.563-7.168 8.064-22.699 12.203-46.165 12.203h-40.704l-22.528-117.803h33.067zM91.648 244.011c-1.964 0.002-3.714 0.913-4.855 2.334l-0.009 0.012c-0.901 1.1-1.448 2.521-1.448 4.069 0 0.447 0.046 0.884 0.132 1.306l-0.007-0.042 59.733 312.149c0.578 2.965 3.141 5.176 6.226 5.205h128.728c40.448 0 70.571-11.179 89.515-33.152 19.029-22.144 24.917-53.035 17.451-91.947-3.092-16.442-8.472-31.104-15.873-44.492l0.385 0.759c-7.253-13.184-16.853-25.387-28.501-36.267-12.925-12.512-28.596-22.272-46.014-28.281l-0.877-0.263c-16.853-5.589-38.528-8.405-64.427-8.405h-52.096l-14.891-77.824c-0.575-2.951-3.116-5.155-6.181-5.205l-66.992 0.043zM545.835 326.997c-1.951 0.003-3.688 0.914-4.812 2.334l-0.010 0.013c-0.892 1.112-1.432 2.541-1.432 4.095 0 0.423 0.040 0.836 0.116 1.236l-0.006-0.041 26.069 138.112c2.475 13.141 1.877 22.571-1.707 26.539-2.176 2.432-8.789 6.528-28.331 6.528h-47.275l-32.811-173.653c-0.541-2.954-3.079-5.169-6.14-5.205h-65.497c-1.951 0.003-3.688 0.914-4.812 2.334l-0.010 0.013c-0.892 1.112-1.432 2.541-1.432 4.095 0 0.423 0.040 0.836 0.116 1.236l-0.006-0.041 58.965 312.149c0.541 2.954 3.079 5.169 6.14 5.205h65.583c1.877 0 3.627-0.853 4.821-2.347s1.664-3.413 1.323-5.333l-14.208-75.349h50.859c38.741 0 64.981-7.040 80.299-21.461 15.573-14.763 20.437-38.315 14.464-70.059l-27.435-145.28c-0.541-2.954-3.079-5.169-6.14-5.205h-66.692v0.085zM766.72 389.12c26.411 0 46.123 4.779 58.624 14.165 12.331 9.301 20.864 25.387 25.344 47.872 4.181 20.992 2.56 35.669-4.736 43.563-7.467 8.064-23.595 12.203-47.957 12.203h-42.197l-23.424-117.803h34.347zM628.651 244.011c-0.001 0-0.003 0-0.005 0-2.028 0-3.844 0.907-5.065 2.337l-0.008 0.009c-0.926 1.097-1.489 2.527-1.489 4.088 0 0.441 0.045 0.871 0.13 1.287l-0.007-0.041 62.037 312.149c0.635 2.993 3.256 5.206 6.393 5.206 0.018 0 0.035 0 0.053 0h133.672c42.027 0 73.301-11.179 92.928-33.152 19.755-22.144 25.856-53.035 18.133-91.947-3.157-15.829-8.533-30.549-16.085-43.691-7.509-13.184-17.493-25.387-29.568-36.267-14.507-13.269-30.891-22.869-48.683-28.544-17.536-5.589-40.021-8.405-66.901-8.405h-54.144l-15.445-77.781c-0.635-2.993-3.256-5.206-6.393-5.206-0.018 0-0.035 0-0.053 0l-69.501-0.043z" />
<glyph unicode="&#xe90e;" glyph-name="symfony" d="M1024 448c0-282.848-229.152-512-512-512s-512 229.152-512 512 229.152 512 512 512 512-229.152 512-512zM735.84 770.656c-52-1.792-97.312-30.464-131.168-70.144-37.504-43.52-62.336-95.136-80.352-147.68-32 26.144-56.672 60.32-108.16 75.168-11.614 3.679-24.97 5.8-38.822 5.8-30.778 0-59.111-10.468-81.634-28.038l0.296 0.222c-17.126-13.477-29.944-31.727-36.499-52.741l-0.205-0.763c-15.328-50.176 16.352-94.976 30.688-110.976l31.488-33.664c6.368-6.528 22.176-23.84 14.336-48.512-8.16-27.008-40.48-44.32-73.824-34.176-14.848 4.512-36.192 15.648-31.36 31.2 2.016 6.496 6.528 11.136 8.992 16.64 2.176 4.704 3.328 8.352 4 10.336 6.016 19.84-2.176 45.696-23.52 52.192-19.84 6.176-39.968 1.312-48-24.16-8.832-29.024 4.992-81.536 79.36-104.544 87.168-26.656 160.64 20.704 171.136 82.528 6.528 38.656-11.008 67.488-43.008 104.32l-26.144 29.024c-15.84 15.648-21.152 42.656-4.832 63.328 13.824 17.536 33.504 24.832 65.664 16.16 47.136-12.832 68-45.312 103.008-71.648-14.496-47.36-24.032-94.848-32.512-137.504l-5.152-31.84c-24.992-130.976-44-203.008-93.664-244.352-10.016-7.008-24.32-17.664-45.664-18.464-11.36-0.16-15.2 7.456-15.2 10.976-0.352 7.84 6.368 11.52 10.848 15.008 6.496 3.488 16.672 9.696 15.84 28.832-0.672 22.656-19.488 42.336-46.688 41.472-20.32-0.64-51.328-19.808-50.144-54.816 1.152-36.32 34.976-63.488 85.792-61.664 27.36 0.864 88.032 12 147.84 83.168 69.664 81.504 89.184 175.008 103.84 243.488l16.352 90.208c9.12-1.024 18.816-1.696 29.472-2.016 86.656-1.824 130.016 43.136 130.656 75.808 0.512 19.84-12.96 39.328-31.648 38.816-16.737-0.436-30.627-12.121-34.413-27.752l-0.051-0.248c-4-18.176 27.648-34.688 2.976-50.688-17.504-11.296-48.992-19.328-93.184-12.8l8.032 44.512c16.512 84.32 36.64 188 113.504 190.464 5.664 0.352 26.144-0.128 26.496-13.664 0.16-4.48-0.8-5.856-6.144-16-4.494-5.912-7.199-13.397-7.199-21.514 0-0.526 0.011-1.049 0.034-1.569l-0.003 0.074c0.64-21.504 16.992-35.68 40.832-34.816 31.648 0.992 40.672 32 40.32 47.84-1.312 37.344-40.672 60.672-92.672 59.136z" />
<glyph unicode="&#xe90f;" glyph-name="javascript" d="M0 960h1024v-1024h-1024zM940.16 180.16c-7.488 46.848-38.016 86.016-128.16 122.656-31.328 14.656-66.336 24.992-76.672 48.672-3.84 14.016-4.512 21.664-2.016 30.016 6.496 27.68 39.008 35.84 64.672 28.16 16.672-5.152 32-17.824 41.664-38.336 44.16 28.832 44.16 28.832 74.848 48-11.488 17.824-17.152 25.664-24.992 33.152-26.848 30.176-62.656 45.504-120.832 44.16l-30.176-3.84c-28.832-7.008-56.32-22.336-72.992-42.848-48.512-55.008-34.496-151.008 24.32-190.848 58.176-43.488 143.328-52.992 154.336-94.016 10.176-50.016-37.152-66.016-84-60.16-34.496 7.68-53.664 24.992-74.848 56.992l-78.016-44.832c8.832-20.512 19.168-29.344 34.496-47.328 74.176-74.848 259.84-71.008 293.152 42.848 1.152 3.84 10.176 30.176 3.168 70.336zM556.832 489.344h-95.84c0-82.656-0.512-164.832-0.512-247.68 0-52.512 2.656-100.832-5.824-115.68-14.176-29.344-50.336-25.664-66.848-20.512-16.832 8.32-25.504 19.84-35.328 36.512-2.848 4.512-4.832 8.32-5.504 8.32l-77.824-48c12.992-26.848 32-50.016 56.512-64.672 36.512-21.824 85.504-28.832 136.832-17.344 33.344 9.664 62.176 29.504 77.152 60.16 21.824 39.68 17.152 88.32 16.992 142.848 0.512 87.68 0 175.328 0 263.68z" />
<glyph unicode="&#xe910;" glyph-name="logo-angular" d="M427.14 448h169.7l-84.86 178.72-84.84-178.72zM512 896l-448-160 92.24-544 355.76-192 355.5 192 92.5 544zM688 256l-53.18 112h-245.66l-53.16-112h-80l256 560 256-560z" />
<glyph unicode="&#xe911;" glyph-name="logo-react" d="M821.32 598.56q-15.34 5.24-30.9 9.76 2.58 10.5 4.76 21.12c23.4 113.8 8.1 205.48-44.12 235.66-50 28.96-132-1.22-214.72-73.38q-12.2-10.68-23.9-22-7.8 7.52-16 14.72c-86.7 77.16-173.6 109.66-225.76 79.38-50-29.020-64.86-115.2-43.8-223.060q3.16-16 7.1-31.86c-16.513-4.614-28.347-8.438-40.026-12.591l4.486 1.391c-101.52-35.5-166.44-91.16-166.44-148.88 0-59.64 69.68-119.44 175.54-155.7q12.88-4.38 26-8.14-4.26-16.98-7.54-34.34c-20-106-4.4-190.14 45.5-218.98 51.54-29.78 138 0.82 222.28 74.62q10 8.76 20 18.5 12.64-12.22 26-23.72c81.6-70.36 162.18-98.78 212-69.86 51.5 29.88 68.24 120.28 46.5 230.26q-2.5 12.6-5.76 25.72 9.12 2.7 17.86 5.58c110 36.54 181.66 95.62 181.66 156-0.040 58-67.040 114.020-170.72 149.8zM563.32 760.72c70.86 61.82 137.1 86.22 167.3 68.78 32.14-18.58 44.64-93.5 24.44-191.76q-2-9.6-4.32-19.14c-36.087 8.68-79.85 15.857-124.487 20.028l-3.873 0.292c-26.45 37.882-53.093 70.987-81.77 102.195l0.63-0.695q10.76 10.44 22.040 20.3zM315.46 399.5q13.020-25.2 27.22-49.78 14.46-25.080 30.14-49.42c-34.562 3.791-64.691 8.809-94.255 15.329l5.775-1.069c8.48 27.44 18.92 55.94 31.12 84.94zM315.46 496.16c-12 28.38-22.16 56.3-30.5 83.26 27.4 6.14 56.6 11.16 87.040 14.96q-15.3-23.88-29.44-48.46t-27.16-49.76zM337.26 447.82q18.96 39.54 40.84 77.56 21.86 38 46.54 74.26c28.56 2.16 57.84 3.3 87.42 3.3s59.040-1.14 87.58-3.32q24.42-36.18 46.26-74t41.38-77.2q-19.28-39.68-41.28-77.88-21.82-38-46-74.48c-28.5-2-58-3.1-88-3.1s-58.94 0.94-86.92 2.76q-24.86 36.38-46.92 74.58t-40.96 77.52zM681.5 350q14.5 25.16 27.84 50.98c10.037-21.72 20.963-49.743 30.456-78.418l1.784-6.222c-24.007-5.771-54.462-11.144-85.419-14.89l-4.161-0.41q15.24 24.18 29.5 48.96zM708.94 496.14q-13.28 25.3-27.62 50-14 24.36-29.18 48.12c30.62-3.88 60-9.040 87.54-15.34-10.799-34.271-21.229-61.7-32.95-88.434l2.21 5.654zM512.46 711.040c18.963-20.66 37.475-42.933 54.87-66.093l1.63-2.267q-56.7 2.7-113.48 0c18.66 24.68 37.76 47.58 56.98 68.36zM291.32 828.28c32.12 18.64 103.14-8 178-74.54 4.78-4.26 9.6-8.72 14.4-13.34-28.216-30.541-55.040-63.617-79.664-98.363l-2.056-3.057c-48.489-4.435-92.183-11.5-134.834-21.298l6.714 1.298q-3.66 14.72-6.6 29.64c-18.1 92.46-6.12 162.16 24.040 179.66zM244.5 324.58q-12 3.42-23.7 7.42c-46.8 16-85.46 36.88-112 59.62-23.76 20.38-35.8 40.72-35.8 57.2 0 35.020 52.12 79.7 139.040 110q16.38 5.7 33.040 10.42c15.14-48.42 31.016-88.661 49.352-127.514l-2.552 6.014c-15.96-33.26-32.033-74.053-45.421-116.044l-1.959-7.116zM466.76 137.24c-37.26-32.64-74.58-55.78-107.48-67.44-29.56-10.46-53.1-10.76-67.32-2.54-30.28 17.5-42.88 85.080-25.7 175.72q3.060 16 7 32c36.738-8.364 80.954-15.022 126.044-18.569l3.336-0.211c26.941-38.003 53.985-71.267 83.012-102.671l-0.612 0.671c-5.96-5.86-12.060-11.5-18.28-16.96zM513.6 183.68c-19.44 21.020-38.84 44.28-57.76 69.28q27.58-1.080 56.16-1.080c19.56 0 38.92 0.42 58 1.28-19.045-25.954-37.534-48.593-57.087-70.253l0.687 0.773zM762.64 126.5c-5.72-30.88-17.22-51.48-31.44-59.72-30.26-17.56-94.96 5.26-164.72 65.44-8 6.88-16 14.26-24.14 22 27.724 30.674 54.157 64.074 78.339 99.146l2.121 3.254c48.862 4.209 93.218 11.318 136.449 21.362l-6.449-1.262q2.94-11.88 5.2-23.28c9.62-48.6 11-92.56 4.64-126.94zM797.44 331.78c-5.24-1.74-10.64-3.42-16.12-5.060-15.675 48.403-32.143 88.729-51.141 127.591l2.521-5.711c15.81 32.559 31.653 72.333 44.827 113.304l1.893 6.816c9.82-2.86 19.36-5.86 28.54-9.040 88.84-30.64 143.040-76 143.040-110.86 0-37.2-58.54-85.48-153.56-117.040zM512 362.9c0.083 0 0.182 0 0.28 0 47.496 0 86 38.504 86 86s-38.504 86-86 86c-47.496 0-86-38.503-86-86v0c0-0.053 0-0.117 0-0.18 0-47.362 38.366-85.763 85.715-85.82h0.005z" />
<glyph unicode="&#xe912;" glyph-name="materialui" d="M0 854.4v-443.307l128-73.941v295.595l256-147.84 256 147.84v-147.84l-256-147.755v-147.797l256-147.755 384 221.653v295.595l-128-73.941v-147.755l-256-147.797-128 73.899 256 147.84v443.307l-384-221.653-384 221.653zM1024 854.4l-128-73.813v-147.84l128 73.899v147.797z" />
<glyph unicode="&#xe913;" glyph-name="invision" d="M931.168 960h-838.336c-51.24-0.073-92.759-41.592-92.832-92.825v-838.343c0.073-51.24 41.592-92.759 92.825-92.832h838.343c51.24 0.073 92.759 41.592 92.832 92.825v838.343c-0.073 51.24-41.592 92.759-92.825 92.832h-0.007zM342.176 760.832c34.016 0 62.656-26.848 62.656-61.344 0-35.008-28.672-61.664-62.656-61.664v-1.152c-34.254 0.018-62.016 27.791-62.016 62.048 0 0.045 0 0.090 0 0.135v-0.007c0 34.336 27.68 62.016 62.016 62.016zM760.992 171.488c-63.328 0-94.016 37.664-94.016 89.152 0 14.656 1.824 30.336 6.336 46.016l30.336 108.672c3.68 11.84 4.672 23.008 4.672 32.992 0 35.008-21.344 56.16-55.328 56.16-43.168 0-71.68-31.008-86.336-91.008l-58.848-236.16h-103.008l18.336 74.336c-30.176-49.824-72.32-80.512-124.16-80.512-62.496 0-92 36-92 90.176 0.173 16.515 2.17 32.475 5.797 47.804l-0.293-1.468 47.008 191.488h-72.832l22.176 81.344h174.848l-69.152-273.344c-4.32-17.504-6.336-32-6.336-42.016 0-17.504 8.672-22.656 22.016-25.824 8.32-1.664 73.664-0.512 109.344 78.496l45.152 181.344h-73.504l22.176 80h158.848l-20.512-92.16c27.488 51.168 82.656 100.512 136.992 100.512 57.664 0 105.664-41.664 105.664-120.32 0-22.848-3.488-45.504-10.336-67.168l-29.504-105.664c-2.496-10.848-4.32-19.84-4.32-28.16 0-18.496 7.68-27.488 20.992-27.488 13.504 0 31.328 10.176 51.168 66.496l40.32-15.328c-23.68-83.84-67.328-118.336-121.664-118.336z" />
</font>
</defs>
</svg>
